<svg width="24" height="24" viewBox="0 0 24 24" fill="none" xmlns="http://www.w3.org/2000/svg">
<g opacity="0.7" clip-path="url(#clip0_1842_1625)">
<path d="M3 7.07085C2.53 7.07085 2 7.01085 1.52 7.01085C1.38641 7.00813 1.2571 7.05794 1.15985 7.14957C1.06261 7.2412 1.00521 7.36734 1 7.50085V19.0008C1.00256 19.1327 1.05606 19.2584 1.14928 19.3516C1.2425 19.4448 1.36819 19.4983 1.5 19.5008C9.6 19.6408 12 23.0008 12 23.0008" stroke="white" stroke-linecap="round" stroke-linejoin="round"/>
<path d="M21.5 7.04102C21.82 7.04102 22.1533 7.04102 22.5 7.04102C22.626 7.04061 22.7474 7.08777 22.8401 7.17305C22.9328 7.25833 22.9899 7.37546 23 7.50102V19.001C22.9974 19.1328 22.9439 19.2585 22.8507 19.3517C22.7575 19.445 22.6318 19.4985 22.5 19.501C14.4 19.641 12 23.001 12 23.001V14.501" stroke="white" stroke-linecap="round" stroke-linejoin="round"/>
<path d="M16 1.70066C14.7694 0.584628 13.1611 -0.0229254 11.5 0.00066194C8.19 0.00066194 5.5 2.24066 5.5 5.00066C5.55665 6.05522 5.94056 7.0659 6.59831 7.89213C7.25607 8.71836 8.15498 9.31906 9.17 9.61066C10.02 9.91066 10.72 9.66066 11.22 8.55066C11.3096 8.27606 11.471 8.03042 11.6875 7.83918C11.904 7.64793 12.1676 7.51804 12.4512 7.46297C12.7347 7.40789 13.0278 7.42962 13.3002 7.52592C13.5725 7.62222 13.8141 7.78958 14 8.01066" stroke="white" stroke-linecap="round" stroke-linejoin="round"/>
<path d="M17.13 5.9209L14 12.1809" stroke="white" stroke-linecap="round" stroke-linejoin="round"/>
<path d="M16.4591 3.91111C16.3562 4.1141 16.3007 4.33786 16.2971 4.56544C16.2934 4.79302 16.3416 5.01845 16.4379 5.22465C16.5343 5.43086 16.6763 5.61243 16.8532 5.75562C17.0302 5.89881 17.2373 5.99986 17.4591 6.05111C17.801 6.11386 18.1541 6.05908 18.461 5.89568C18.7678 5.73227 19.0104 5.46985 19.1491 5.15111C19.4911 4.59354 19.6534 3.94434 19.614 3.29146C19.5746 2.63857 19.3356 2.01356 18.9291 1.50111C18.8992 1.46403 18.8592 1.43628 18.814 1.42114C18.7688 1.40601 18.7202 1.40411 18.674 1.41567C18.6278 1.42723 18.5858 1.45177 18.553 1.4864C18.5203 1.52102 18.4981 1.56429 18.4891 1.61111C18.3591 2.66111 17.2391 2.35111 16.4591 3.91111Z" stroke="white" stroke-linecap="round" stroke-linejoin="round"/>
<path d="M9.25 6.50098C9.94036 6.50098 10.5 6.05326 10.5 5.50098C10.5 4.94869 9.94036 4.50098 9.25 4.50098C8.55964 4.50098 8 4.94869 8 5.50098C8 6.05326 8.55964 6.50098 9.25 6.50098Z" stroke="white" stroke-linecap="round" stroke-linejoin="round"/>
<path d="M11.75 3.50098C12.4404 3.50098 13 3.05326 13 2.50098C13 1.94869 12.4404 1.50098 11.75 1.50098C11.0596 1.50098 10.5 1.94869 10.5 2.50098C10.5 3.05326 11.0596 3.50098 11.75 3.50098Z" stroke="white" stroke-linecap="round" stroke-linejoin="round"/>
</g>
<defs>
<clipPath id="clip0_1842_1625">
<rect width="24" height="24" fill="white"/>
</clipPath>
</defs>
</svg>
