<svg width="48" height="48" viewBox="0 0 48 48" fill="none" xmlns="http://www.w3.org/2000/svg">
<path d="M48 24C48 37.2548 37.2548 48 24 48C10.7452 48 0 37.2548 0 24C0 10.7452 10.7452 0 24 0C37.2548 0 48 10.7452 48 24Z" fill="url(#paint0_linear_3204_213)"/>
<path d="M33.7829 33.9999C33.1682 31.8286 31.8703 29.9186 30.0857 28.5588C28.301 27.1991 26.1266 26.4636 23.8915 26.4636C21.6563 26.4636 19.4819 27.1991 17.6973 28.5588C15.9126 29.9186 14.6147 31.8286 14 33.9999H33.7829Z" fill="white"/>
<path d="M24.0316 24.4225C26.9097 24.4225 29.2428 22.0894 29.2428 19.2113C29.2428 16.3332 26.9097 14 24.0316 14C21.1535 14 18.8203 16.3332 18.8203 19.2113C18.8203 22.0894 21.1535 24.4225 24.0316 24.4225Z" fill="white"/>
<path d="M47 9C47 11.7614 44.7614 14 42 14C39.2386 14 37 11.7614 37 9C37 6.23858 39.2386 4 42 4C44.7614 4 47 6.23858 47 9Z" fill="#4BB625"/>
<defs>
<linearGradient id="paint0_linear_3204_213" x1="-166.095" y1="-148.546" x2="69.1053" y2="-127.986" gradientUnits="userSpaceOnUse">
<stop stop-color="white"/>
<stop offset="1" stop-color="white" stop-opacity="0"/>
</linearGradient>
</defs>
</svg>
