<svg width="20" height="36" viewBox="0 0 20 36" fill="none" xmlns="http://www.w3.org/2000/svg">
<path d="M16.4864 0.00381842H14.6776H12.662C11.4639 -0.0323215 10.2719 0.188425 9.16621 0.651222C8.0605 1.11402 7.06668 1.80814 6.25153 2.68694C5.43637 3.56574 4.81878 4.60885 4.44026 5.74616C4.06174 6.88347 3.93106 8.08864 4.057 9.28065V11.8647C4.057 12.0361 3.98894 12.2004 3.86779 12.3215C3.74663 12.4427 3.58232 12.5107 3.41098 12.5107H2.58408C1.89874 12.5107 1.24147 12.783 0.756858 13.2676C0.27225 13.7522 0 14.4095 0 15.0948V17.6789C0 18.3642 0.27225 19.0215 0.756858 19.5061C1.24147 19.9907 1.89874 20.263 2.58408 20.263H3.41098C3.58232 20.263 3.74663 20.331 3.86779 20.4522C3.98894 20.5733 4.057 20.7377 4.057 20.909V34.0103C4.0637 34.5359 4.27548 35.0381 4.64719 35.4098C5.01889 35.7815 5.52111 35.9933 6.04674 36H10.9306C11.4584 36 11.9645 35.7904 12.3376 35.4172C12.7107 35.0441 12.9204 34.538 12.9204 34.0103V21.0899C12.9204 20.9185 12.9884 20.7542 13.1096 20.6331C13.2307 20.5119 13.3951 20.4439 13.5664 20.4439H14.6776C15.3629 20.4439 16.0202 20.1716 16.5048 19.687C16.9894 19.2024 17.2616 18.5451 17.2616 17.8598V15.2757C17.2616 14.5904 16.9894 13.9331 16.5048 13.4485C16.0202 12.9639 15.3629 12.6916 14.6776 12.6916H13.5664C13.3951 12.6916 13.2307 12.6236 13.1096 12.5024C12.9884 12.3813 12.9204 12.2169 12.9204 12.0456V10.0559C12.9204 7.91109 13.5664 7.91109 14.8068 7.91109H16.4347C17.1483 7.90911 17.8334 7.63134 18.3469 7.13587C18.8471 6.62543 19.1257 5.93828 19.1222 5.22365V2.76878C19.1474 2.41014 19.0976 2.05017 18.9758 1.7119C18.854 1.37362 18.6629 1.06448 18.4149 0.804248C18.1668 0.544013 17.8671 0.33841 17.5351 0.200583C17.203 0.062756 16.8458 -0.00426052 16.4864 0.00381842Z" fill="white"/>
</svg>
