<svg width="32" height="32" viewBox="0 0 32 32" fill="none" xmlns="http://www.w3.org/2000/svg">
<path d="M16.0012 10.7932C13.134 10.7932 10.7941 13.133 10.7941 16.0002C10.7941 18.8674 13.134 21.2072 16.0012 21.2072C18.8683 21.2072 21.2082 18.8674 21.2082 16.0002C21.2082 13.133 18.8683 10.7932 16.0012 10.7932ZM31.6183 16.0002C31.6183 13.8439 31.6379 11.7072 31.5168 9.55487C31.3957 7.05487 30.8254 4.83612 28.9973 3.008C27.1652 1.17597 24.9504 0.60956 22.4504 0.488467C20.2941 0.367373 18.1574 0.386904 16.0051 0.386904C13.8488 0.386904 11.7121 0.367373 9.55976 0.488467C7.05976 0.60956 4.84101 1.17987 3.01288 3.008C1.18085 4.84003 0.614443 7.05487 0.493349 9.55487C0.372256 11.7111 0.391787 13.8478 0.391787 16.0002C0.391787 18.1525 0.372256 20.2932 0.493349 22.4455C0.614443 24.9455 1.18476 27.1642 3.01288 28.9924C4.84491 30.8244 7.05976 31.3908 9.55976 31.5119C11.716 31.633 13.8527 31.6135 16.0051 31.6135C18.1613 31.6135 20.298 31.633 22.4504 31.5119C24.9504 31.3908 27.1691 30.8205 28.9973 28.9924C30.8293 27.1603 31.3957 24.9455 31.5168 22.4455C31.6418 20.2932 31.6183 18.1564 31.6183 16.0002ZM16.0012 24.0119C11.5676 24.0119 7.98944 20.4338 7.98944 16.0002C7.98944 11.5666 11.5676 7.98847 16.0012 7.98847C20.4348 7.98847 24.0129 11.5666 24.0129 16.0002C24.0129 20.4338 20.4348 24.0119 16.0012 24.0119ZM24.341 9.53144C23.3059 9.53144 22.4699 8.6955 22.4699 7.66034C22.4699 6.62519 23.3059 5.78925 24.341 5.78925C25.3762 5.78925 26.2121 6.62519 26.2121 7.66034C26.2124 7.90614 26.1642 8.14959 26.0703 8.37674C25.9764 8.60389 25.8386 8.81028 25.6648 8.98409C25.4909 9.1579 25.2846 9.29571 25.0574 9.38964C24.8303 9.48356 24.5868 9.53174 24.341 9.53144Z" fill="white"/>
</svg>
