<svg width="34" height="28" viewBox="0 0 34 28" fill="none" xmlns="http://www.w3.org/2000/svg">
<path d="M33.4632 3.22931C32.2326 3.76015 30.8934 4.14219 29.514 4.29099C30.9461 3.44018 32.0186 2.09604 32.5302 0.510751C31.1863 1.31019 29.7141 1.87077 28.1789 2.16762C27.5372 1.48165 26.7612 0.935183 25.8991 0.562257C25.037 0.18933 24.1073 -0.00205815 23.168 1.6691e-05C19.3677 1.6691e-05 16.3113 3.08051 16.3113 6.86075C16.3113 7.39159 16.3757 7.92243 16.4802 8.43317C10.7898 8.13557 5.7146 5.41702 2.34053 1.25473C1.72574 2.30482 1.40357 3.50046 1.40754 4.71727C1.40754 7.09802 2.61802 9.19726 4.4639 10.4319C3.37609 10.389 2.31376 10.09 1.3633 9.5592V9.64365C1.3633 12.9775 3.71992 15.7403 6.86073 16.3757C6.27101 16.5289 5.66435 16.6072 5.05506 16.6089C4.60867 16.6089 4.18641 16.5647 3.76013 16.5044C4.62878 19.2229 7.15832 21.1975 10.1705 21.2619C7.81383 23.1077 4.86203 24.1935 1.65687 24.1935C1.08179 24.1935 0.55095 24.1734 0 24.1091C3.04028 26.0595 6.64759 27.1856 10.5324 27.1856C23.1439 27.1856 30.0449 16.7376 30.0449 7.66908C30.0449 7.37148 30.0449 7.07389 30.0247 6.7763C31.3599 5.79906 32.5302 4.58858 33.4632 3.22931Z" fill="white"/>
</svg>
